<svg id="visual" viewBox="0 0 960 540" width="960" height="540" xmlns="http://www.w3.org/2000/svg" xmlns:xlink="http://www.w3.org/1999/xlink" version="1.1"><path d="M257 0L254.3 7.5C251.7 15 246.3 30 237.5 45C228.7 60 216.3 75 211.3 90C206.3 105 208.7 120 207 135C205.3 150 199.7 165 201.5 180C203.3 195 212.7 210 217.8 225C223 240 224 255 218.5 270C213 285 201 300 194 315C187 330 185 345 178.8 360C172.7 375 162.3 390 161.8 405C161.3 420 170.7 435 181.2 450C191.7 465 203.3 480 216.2 495C229 510 243 525 250 532.5L257 540L0 540L0 532.5C0 525 0 510 0 495C0 480 0 465 0 450C0 435 0 420 0 405C0 390 0 375 0 360C0 345 0 330 0 315C0 300 0 285 0 270C0 255 0 240 0 225C0 210 0 195 0 180C0 165 0 150 0 135C0 120 0 105 0 90C0 75 0 60 0 45C0 30 0 15 0 7.5L0 0Z" fill="#4a6b8d"></path><path d="M118 0L133.7 7.5C149.3 15 180.7 30 189.5 45C198.3 60 184.7 75 173.7 90C162.7 105 154.3 120 157.2 135C160 150 174 165 183.5 180C193 195 198 210 193.8 225C189.7 240 176.3 255 179.7 270C183 285 203 300 198.5 315C194 330 165 345 157.3 360C149.7 375 163.3 390 164.3 405C165.3 420 153.7 435 147 450C140.3 465 138.7 480 141.7 495C144.7 510 152.3 525 156.2 532.5L160 540L0 540L0 532.5C0 525 0 510 0 495C0 480 0 465 0 450C0 435 0 420 0 405C0 390 0 375 0 360C0 345 0 330 0 315C0 300 0 285 0 270C0 255 0 240 0 225C0 210 0 195 0 180C0 165 0 150 0 135C0 120 0 105 0 90C0 75 0 60 0 45C0 30 0 15 0 7.5L0 0Z" fill="#3d5b7a"></path><path d="M159 0L161.5 7.5C164 15 169 30 162.3 45C155.7 60 137.3 75 134.3 90C131.3 105 143.7 120 142.8 135C142 150 128 165 124.2 180C120.3 195 126.7 210 129.8 225C133 240 133 255 135.7 270C138.3 285 143.7 300 139.5 315C135.3 330 121.7 345 117 360C112.3 375 116.7 390 116.2 405C115.7 420 110.3 435 121 450C131.7 465 158.3 480 158.7 495C159 510 133 525 120 532.5L107 540L0 540L0 532.5C0 525 0 510 0 495C0 480 0 465 0 450C0 435 0 420 0 405C0 390 0 375 0 360C0 345 0 330 0 315C0 300 0 285 0 270C0 255 0 240 0 225C0 210 0 195 0 180C0 165 0 150 0 135C0 120 0 105 0 90C0 75 0 60 0 45C0 30 0 15 0 7.5L0 0Z" fill="#304b67"></path><path d="M89 0L98.8 7.5C108.7 15 128.3 30 126.7 45C125 60 102 75 92.7 90C83.3 105 87.7 120 91.3 135C95 150 98 165 109.7 180C121.3 195 141.7 210 142.3 225C143 240 124 255 118.3 270C112.7 285 120.3 300 120 315C119.7 330 111.3 345 104.2 360C97 375 91 390 96.3 405C101.7 420 118.3 435 119.8 450C121.3 465 107.7 480 105.8 495C104 510 114 525 119 532.5L124 540L0 540L0 532.5C0 525 0 510 0 495C0 480 0 465 0 450C0 435 0 420 0 405C0 390 0 375 0 360C0 345 0 330 0 315C0 300 0 285 0 270C0 255 0 240 0 225C0 210 0 195 0 180C0 165 0 150 0 135C0 120 0 105 0 90C0 75 0 60 0 45C0 30 0 15 0 7.5L0 0Z" fill="#243c55"></path><path d="M61 0L63.7 7.5C66.3 15 71.7 30 78.5 45C85.3 60 93.7 75 99.8 90C106 105 110 120 105.5 135C101 150 88 165 89.8 180C91.7 195 108.3 210 106.3 225C104.3 240 83.7 255 80.2 270C76.7 285 90.3 300 93.8 315C97.3 330 90.7 345 93 360C95.3 375 106.7 390 107 405C107.3 420 96.7 435 94.8 450C93 465 100 480 102.8 495C105.7 510 104.3 525 103.7 532.5L103 540L0 540L0 532.5C0 525 0 510 0 495C0 480 0 465 0 450C0 435 0 420 0 405C0 390 0 375 0 360C0 345 0 330 0 315C0 300 0 285 0 270C0 255 0 240 0 225C0 210 0 195 0 180C0 165 0 150 0 135C0 120 0 105 0 90C0 75 0 60 0 45C0 30 0 15 0 7.5L0 0Z" fill="#182d43"></path><path d="M94 0L84.8 7.5C75.7 15 57.3 30 53.7 45C50 60 61 75 63.2 90C65.3 105 58.7 120 52.3 135C46 150 40 165 42.2 180C44.3 195 54.7 210 55.2 225C55.7 240 46.3 255 47.7 270C49 285 61 300 61 315C61 330 49 345 50.3 360C51.7 375 66.3 390 75.7 405C85 420 89 435 83.7 450C78.3 465 63.7 480 62.7 495C61.7 510 74.3 525 80.7 532.5L87 540L0 540L0 532.5C0 525 0 510 0 495C0 480 0 465 0 450C0 435 0 420 0 405C0 390 0 375 0 360C0 345 0 330 0 315C0 300 0 285 0 270C0 255 0 240 0 225C0 210 0 195 0 180C0 165 0 150 0 135C0 120 0 105 0 90C0 75 0 60 0 45C0 30 0 15 0 7.5L0 0Z" fill="#0c1f32"></path><path d="M19 0L25.3 7.5C31.7 15 44.3 30 50.3 45C56.3 60 55.7 75 55.2 90C54.7 105 54.3 120 49.8 135C45.3 150 36.7 165 33.5 180C30.3 195 32.7 210 35.7 225C38.7 240 42.3 255 46 270C49.7 285 53.3 300 47.8 315C42.3 330 27.7 345 26 360C24.3 375 35.7 390 41.7 405C47.7 420 48.3 435 50.7 450C53 465 57 480 54.5 495C52 510 43 525 38.5 532.5L34 540L0 540L0 532.5C0 525 0 510 0 495C0 480 0 465 0 450C0 435 0 420 0 405C0 390 0 375 0 360C0 345 0 330 0 315C0 300 0 285 0 270C0 255 0 240 0 225C0 210 0 195 0 180C0 165 0 150 0 135C0 120 0 105 0 90C0 75 0 60 0 45C0 30 0 15 0 7.5L0 0Z" fill="#001122"></path></svg>