<svg id="visual" viewBox="0 0 960 540" width="960" height="540" xmlns="http://www.w3.org/2000/svg" xmlns:xlink="http://www.w3.org/1999/xlink" version="1.1"><path d="M146 0L151.5 7.5C157 15 168 30 179 45C190 60 201 75 199.2 90C197.3 105 182.7 120 183.8 135C185 150 202 165 200.7 180C199.3 195 179.7 210 183.8 225C188 240 216 255 219 270C222 285 200 300 188.7 315C177.3 330 176.7 345 174.8 360C173 375 170 390 180.2 405C190.3 420 213.7 435 225.5 450C237.3 465 237.7 480 239.3 495C241 510 244 525 245.5 532.5L247 540L0 540L0 532.5C0 525 0 510 0 495C0 480 0 465 0 450C0 435 0 420 0 405C0 390 0 375 0 360C0 345 0 330 0 315C0 300 0 285 0 270C0 255 0 240 0 225C0 210 0 195 0 180C0 165 0 150 0 135C0 120 0 105 0 90C0 75 0 60 0 45C0 30 0 15 0 7.5L0 0Z" fill="#4a6b8d"></path><path d="M154 0L148.5 7.5C143 15 132 30 141 45C150 60 179 75 188.2 90C197.3 105 186.7 120 180.3 135C174 150 172 165 175.5 180C179 195 188 210 187 225C186 240 175 255 166 270C157 285 150 300 152.7 315C155.3 330 167.7 345 179.8 360C192 375 204 390 208.2 405C212.3 420 208.7 435 197.5 450C186.3 465 167.7 480 158.7 495C149.7 510 150.3 525 150.7 532.5L151 540L0 540L0 532.5C0 525 0 510 0 495C0 480 0 465 0 450C0 435 0 420 0 405C0 390 0 375 0 360C0 345 0 330 0 315C0 300 0 285 0 270C0 255 0 240 0 225C0 210 0 195 0 180C0 165 0 150 0 135C0 120 0 105 0 90C0 75 0 60 0 45C0 30 0 15 0 7.5L0 0Z" fill="#3d5b7a"></path><path d="M176 0L177.8 7.5C179.7 15 183.3 30 178.2 45C173 60 159 75 143.7 90C128.3 105 111.7 120 109.3 135C107 150 119 165 135 180C151 195 171 210 173.7 225C176.3 240 161.7 255 159.2 270C156.7 285 166.3 300 164.3 315C162.3 330 148.7 345 137.8 360C127 375 119 390 112.8 405C106.7 420 102.3 435 105.7 450C109 465 120 480 126.5 495C133 510 135 525 136 532.5L137 540L0 540L0 532.5C0 525 0 510 0 495C0 480 0 465 0 450C0 435 0 420 0 405C0 390 0 375 0 360C0 345 0 330 0 315C0 300 0 285 0 270C0 255 0 240 0 225C0 210 0 195 0 180C0 165 0 150 0 135C0 120 0 105 0 90C0 75 0 60 0 45C0 30 0 15 0 7.5L0 0Z" fill="#304b67"></path><path d="M94 0L98.5 7.5C103 15 112 30 116 45C120 60 119 75 124 90C129 105 140 120 142.8 135C145.7 150 140.3 165 142 180C143.7 195 152.3 210 151.2 225C150 240 139 255 131.8 270C124.7 285 121.3 300 115.5 315C109.7 330 101.3 345 94.2 360C87 375 81 390 81.2 405C81.3 420 87.7 435 99.3 450C111 465 128 480 125 495C122 510 99 525 87.5 532.5L76 540L0 540L0 532.5C0 525 0 510 0 495C0 480 0 465 0 450C0 435 0 420 0 405C0 390 0 375 0 360C0 345 0 330 0 315C0 300 0 285 0 270C0 255 0 240 0 225C0 210 0 195 0 180C0 165 0 150 0 135C0 120 0 105 0 90C0 75 0 60 0 45C0 30 0 15 0 7.5L0 0Z" fill="#243c55"></path><path d="M78 0L78 7.5C78 15 78 30 80.5 45C83 60 88 75 96.3 90C104.7 105 116.3 120 114.2 135C112 150 96 165 86 180C76 195 72 210 80 225C88 240 108 255 112.7 270C117.3 285 106.7 300 104.7 315C102.7 330 109.3 345 104.5 360C99.7 375 83.3 390 83 405C82.7 420 98.3 435 104.7 450C111 465 108 480 100.7 495C93.3 510 81.7 525 75.8 532.5L70 540L0 540L0 532.5C0 525 0 510 0 495C0 480 0 465 0 450C0 435 0 420 0 405C0 390 0 375 0 360C0 345 0 330 0 315C0 300 0 285 0 270C0 255 0 240 0 225C0 210 0 195 0 180C0 165 0 150 0 135C0 120 0 105 0 90C0 75 0 60 0 45C0 30 0 15 0 7.5L0 0Z" fill="#182d43"></path><path d="M45 0L53.3 7.5C61.7 15 78.3 30 78.7 45C79 60 63 75 60.7 90C58.3 105 69.7 120 73.8 135C78 150 75 165 67.8 180C60.7 195 49.3 210 45.5 225C41.7 240 45.3 255 54.7 270C64 285 79 300 77 315C75 330 56 345 51.2 360C46.3 375 55.7 390 56.7 405C57.7 420 50.3 435 53 450C55.7 465 68.3 480 67 495C65.7 510 50.3 525 42.7 532.5L35 540L0 540L0 532.5C0 525 0 510 0 495C0 480 0 465 0 450C0 435 0 420 0 405C0 390 0 375 0 360C0 345 0 330 0 315C0 300 0 285 0 270C0 255 0 240 0 225C0 210 0 195 0 180C0 165 0 150 0 135C0 120 0 105 0 90C0 75 0 60 0 45C0 30 0 15 0 7.5L0 0Z" fill="#0c1f32"></path><path d="M37 0L34.7 7.5C32.3 15 27.7 30 31.2 45C34.7 60 46.3 75 49 90C51.7 105 45.3 120 38.2 135C31 150 23 165 24 180C25 195 35 210 42 225C49 240 53 255 51 270C49 285 41 300 37.2 315C33.3 330 33.7 345 36.5 360C39.3 375 44.7 390 48.2 405C51.7 420 53.3 435 53.8 450C54.3 465 53.7 480 54.7 495C55.7 510 58.3 525 59.7 532.5L61 540L0 540L0 532.5C0 525 0 510 0 495C0 480 0 465 0 450C0 435 0 420 0 405C0 390 0 375 0 360C0 345 0 330 0 315C0 300 0 285 0 270C0 255 0 240 0 225C0 210 0 195 0 180C0 165 0 150 0 135C0 120 0 105 0 90C0 75 0 60 0 45C0 30 0 15 0 7.5L0 0Z" fill="#001122"></path></svg>