<svg id="visual" viewBox="0 0 960 540" width="960" height="540" xmlns="http://www.w3.org/2000/svg" xmlns:xlink="http://www.w3.org/1999/xlink" version="1.1"><path d="M159 0L167.2 7.5C175.3 15 191.7 30 198.5 45C205.3 60 202.7 75 197.2 90C191.7 105 183.3 120 191.3 135C199.3 150 223.7 165 223.5 180C223.3 195 198.7 210 195.2 225C191.7 240 209.3 255 206.5 270C203.7 285 180.3 300 179.7 315C179 330 201 345 205.7 360C210.3 375 197.7 390 188.5 405C179.3 420 173.7 435 182.7 450C191.7 465 215.3 480 229.5 495C243.7 510 248.3 525 250.7 532.5L253 540L0 540L0 532.5C0 525 0 510 0 495C0 480 0 465 0 450C0 435 0 420 0 405C0 390 0 375 0 360C0 345 0 330 0 315C0 300 0 285 0 270C0 255 0 240 0 225C0 210 0 195 0 180C0 165 0 150 0 135C0 120 0 105 0 90C0 75 0 60 0 45C0 30 0 15 0 7.5L0 0Z" fill="#4a6b8d"></path><path d="M130 0L127.7 7.5C125.3 15 120.7 30 133 45C145.3 60 174.7 75 188.2 90C201.7 105 199.3 120 191 135C182.7 150 168.3 165 172.7 180C177 195 200 210 204.2 225C208.3 240 193.7 255 179.8 270C166 285 153 300 158.5 315C164 330 188 345 194 360C200 375 188 390 178.5 405C169 420 162 435 163.8 450C165.7 465 176.3 480 187.2 495C198 510 209 525 214.5 532.5L220 540L0 540L0 532.5C0 525 0 510 0 495C0 480 0 465 0 450C0 435 0 420 0 405C0 390 0 375 0 360C0 345 0 330 0 315C0 300 0 285 0 270C0 255 0 240 0 225C0 210 0 195 0 180C0 165 0 150 0 135C0 120 0 105 0 90C0 75 0 60 0 45C0 30 0 15 0 7.5L0 0Z" fill="#3d5b7a"></path><path d="M156 0L146.7 7.5C137.3 15 118.7 30 113.3 45C108 60 116 75 118.5 90C121 105 118 120 123.8 135C129.7 150 144.3 165 148.8 180C153.3 195 147.7 210 140.5 225C133.3 240 124.7 255 126.7 270C128.7 285 141.3 300 152.3 315C163.3 330 172.7 345 166.3 360C160 375 138 390 134 405C130 420 144 435 143.3 450C142.7 465 127.3 480 123.8 495C120.3 510 128.7 525 132.8 532.5L137 540L0 540L0 532.5C0 525 0 510 0 495C0 480 0 465 0 450C0 435 0 420 0 405C0 390 0 375 0 360C0 345 0 330 0 315C0 300 0 285 0 270C0 255 0 240 0 225C0 210 0 195 0 180C0 165 0 150 0 135C0 120 0 105 0 90C0 75 0 60 0 45C0 30 0 15 0 7.5L0 0Z" fill="#304b67"></path><path d="M151 0L144.8 7.5C138.7 15 126.3 30 123 45C119.7 60 125.3 75 129.8 90C134.3 105 137.7 120 132 135C126.3 150 111.7 165 114.2 180C116.7 195 136.3 210 143.7 225C151 240 146 255 138 270C130 285 119 300 116.2 315C113.3 330 118.7 345 127 360C135.3 375 146.7 390 142.8 405C139 420 120 435 107.8 450C95.7 465 90.3 480 91.2 495C92 510 99 525 102.5 532.5L106 540L0 540L0 532.5C0 525 0 510 0 495C0 480 0 465 0 450C0 435 0 420 0 405C0 390 0 375 0 360C0 345 0 330 0 315C0 300 0 285 0 270C0 255 0 240 0 225C0 210 0 195 0 180C0 165 0 150 0 135C0 120 0 105 0 90C0 75 0 60 0 45C0 30 0 15 0 7.5L0 0Z" fill="#243c55"></path><path d="M80 0L82 7.5C84 15 88 30 91.7 45C95.3 60 98.7 75 96.3 90C94 105 86 120 79.7 135C73.3 150 68.7 165 74.3 180C80 195 96 210 94.5 225C93 240 74 255 66.5 270C59 285 63 300 74.7 315C86.3 330 105.7 345 103.5 360C101.3 375 77.7 390 76.8 405C76 420 98 435 104.7 450C111.3 465 102.7 480 92.5 495C82.3 510 70.7 525 64.8 532.5L59 540L0 540L0 532.5C0 525 0 510 0 495C0 480 0 465 0 450C0 435 0 420 0 405C0 390 0 375 0 360C0 345 0 330 0 315C0 300 0 285 0 270C0 255 0 240 0 225C0 210 0 195 0 180C0 165 0 150 0 135C0 120 0 105 0 90C0 75 0 60 0 45C0 30 0 15 0 7.5L0 0Z" fill="#182d43"></path><path d="M71 0L65 7.5C59 15 47 30 41.5 45C36 60 37 75 45.8 90C54.7 105 71.3 120 73.2 135C75 150 62 165 63.2 180C64.3 195 79.7 210 84.7 225C89.7 240 84.3 255 84.2 270C84 285 89 300 83.2 315C77.3 330 60.7 345 56.7 360C52.7 375 61.3 390 65.8 405C70.3 420 70.7 435 71.7 450C72.7 465 74.3 480 75.8 495C77.3 510 78.7 525 79.3 532.5L80 540L0 540L0 532.5C0 525 0 510 0 495C0 480 0 465 0 450C0 435 0 420 0 405C0 390 0 375 0 360C0 345 0 330 0 315C0 300 0 285 0 270C0 255 0 240 0 225C0 210 0 195 0 180C0 165 0 150 0 135C0 120 0 105 0 90C0 75 0 60 0 45C0 30 0 15 0 7.5L0 0Z" fill="#0c1f32"></path><path d="M57 0L57.5 7.5C58 15 59 30 53.7 45C48.3 60 36.7 75 31.3 90C26 105 27 120 25.7 135C24.3 150 20.7 165 21 180C21.3 195 25.7 210 30.2 225C34.7 240 39.3 255 37 270C34.7 285 25.3 300 27 315C28.7 330 41.3 345 48.3 360C55.3 375 56.7 390 52.8 405C49 420 40 435 33.8 450C27.7 465 24.3 480 25.8 495C27.3 510 33.7 525 36.8 532.5L40 540L0 540L0 532.5C0 525 0 510 0 495C0 480 0 465 0 450C0 435 0 420 0 405C0 390 0 375 0 360C0 345 0 330 0 315C0 300 0 285 0 270C0 255 0 240 0 225C0 210 0 195 0 180C0 165 0 150 0 135C0 120 0 105 0 90C0 75 0 60 0 45C0 30 0 15 0 7.5L0 0Z" fill="#001122"></path></svg>