<svg id="visual" viewBox="0 0 960 540" width="960" height="540" xmlns="http://www.w3.org/2000/svg" xmlns:xlink="http://www.w3.org/1999/xlink" version="1.1"><path d="M149 0L159.8 5.7C170.7 11.3 192.3 22.7 187.3 34C182.3 45.3 150.7 56.7 146.3 67.8C142 79 165 90 175.8 101.2C186.7 112.3 185.3 123.7 175.3 135C165.3 146.3 146.7 157.7 142.2 169C137.7 180.3 147.3 191.7 158.5 202.8C169.7 214 182.3 225 192.3 236.2C202.3 247.3 209.7 258.7 208.5 270C207.3 281.3 197.7 292.7 198.3 304C199 315.3 210 326.7 210.5 337.8C211 349 201 360 204 371.2C207 382.3 223 393.7 211.5 405C200 416.3 161 427.7 152.2 439C143.3 450.3 164.7 461.7 185 472.8C205.3 484 224.7 495 224.3 506.2C224 517.3 204 528.7 194 534.3L184 540L0 540L0 534.3C0 528.7 0 517.3 0 506.2C0 495 0 484 0 472.8C0 461.7 0 450.3 0 439C0 427.7 0 416.3 0 405C0 393.7 0 382.3 0 371.2C0 360 0 349 0 337.8C0 326.7 0 315.3 0 304C0 292.7 0 281.3 0 270C0 258.7 0 247.3 0 236.2C0 225 0 214 0 202.8C0 191.7 0 180.3 0 169C0 157.7 0 146.3 0 135C0 123.7 0 112.3 0 101.2C0 90 0 79 0 67.8C0 56.7 0 45.3 0 34C0 22.7 0 11.3 0 5.7L0 0Z" fill="#4a6b8d"></path><path d="M219 0L206.8 5.7C194.7 11.3 170.3 22.7 151.7 34C133 45.3 120 56.7 129 67.8C138 79 169 90 175.8 101.2C182.7 112.3 165.3 123.7 168.2 135C171 146.3 194 157.7 194.8 169C195.7 180.3 174.3 191.7 168.3 202.8C162.3 214 171.7 225 167.5 236.2C163.3 247.3 145.7 258.7 149.2 270C152.7 281.3 177.3 292.7 182.5 304C187.7 315.3 173.3 326.7 165.5 337.8C157.7 349 156.3 360 146.7 371.2C137 382.3 119 393.7 126.8 405C134.7 416.3 168.3 427.7 169.2 439C170 450.3 138 461.7 125 472.8C112 484 118 495 136.3 506.2C154.7 517.3 185.3 528.7 200.7 534.3L216 540L0 540L0 534.3C0 528.7 0 517.3 0 506.2C0 495 0 484 0 472.8C0 461.7 0 450.3 0 439C0 427.7 0 416.3 0 405C0 393.7 0 382.3 0 371.2C0 360 0 349 0 337.8C0 326.7 0 315.3 0 304C0 292.7 0 281.3 0 270C0 258.7 0 247.3 0 236.2C0 225 0 214 0 202.8C0 191.7 0 180.3 0 169C0 157.7 0 146.3 0 135C0 123.7 0 112.3 0 101.2C0 90 0 79 0 67.8C0 56.7 0 45.3 0 34C0 22.7 0 11.3 0 5.7L0 0Z" fill="#3d5b7a"></path><path d="M184 0L168.7 5.7C153.3 11.3 122.7 22.7 113.3 34C104 45.3 116 56.7 132.2 67.8C148.3 79 168.7 90 178.2 101.2C187.7 112.3 186.3 123.7 179 135C171.7 146.3 158.3 157.7 154.3 169C150.3 180.3 155.7 191.7 146 202.8C136.3 214 111.7 225 117 236.2C122.3 247.3 157.7 258.7 174.5 270C191.3 281.3 189.7 292.7 173.7 304C157.7 315.3 127.3 326.7 119.3 337.8C111.3 349 125.7 360 126.3 371.2C127 382.3 114 393.7 119.2 405C124.3 416.3 147.7 427.7 162.5 439C177.3 450.3 183.7 461.7 174.5 472.8C165.3 484 140.7 495 123.2 506.2C105.7 517.3 95.3 528.7 90.2 534.3L85 540L0 540L0 534.3C0 528.7 0 517.3 0 506.2C0 495 0 484 0 472.8C0 461.7 0 450.3 0 439C0 427.7 0 416.3 0 405C0 393.7 0 382.3 0 371.2C0 360 0 349 0 337.8C0 326.7 0 315.3 0 304C0 292.7 0 281.3 0 270C0 258.7 0 247.3 0 236.2C0 225 0 214 0 202.8C0 191.7 0 180.3 0 169C0 157.7 0 146.3 0 135C0 123.7 0 112.3 0 101.2C0 90 0 79 0 67.8C0 56.7 0 45.3 0 34C0 22.7 0 11.3 0 5.7L0 0Z" fill="#304b67"></path><path d="M70 0L70.5 5.7C71 11.3 72 22.7 83 34C94 45.3 115 56.7 118.2 67.8C121.3 79 106.7 90 100.2 101.2C93.7 112.3 95.3 123.7 94 135C92.7 146.3 88.3 157.7 94.3 169C100.3 180.3 116.7 191.7 128.7 202.8C140.7 214 148.3 225 149.2 236.2C150 247.3 144 258.7 143.8 270C143.7 281.3 149.3 292.7 150.7 304C152 315.3 149 326.7 140 337.8C131 349 116 360 105.5 371.2C95 382.3 89 393.7 95.2 405C101.3 416.3 119.7 427.7 118.8 439C118 450.3 98 461.7 98.3 472.8C98.7 484 119.3 495 129.3 506.2C139.3 517.3 138.7 528.7 138.3 534.3L138 540L0 540L0 534.3C0 528.7 0 517.3 0 506.2C0 495 0 484 0 472.8C0 461.7 0 450.3 0 439C0 427.7 0 416.3 0 405C0 393.7 0 382.3 0 371.2C0 360 0 349 0 337.8C0 326.7 0 315.3 0 304C0 292.7 0 281.3 0 270C0 258.7 0 247.3 0 236.2C0 225 0 214 0 202.8C0 191.7 0 180.3 0 169C0 157.7 0 146.3 0 135C0 123.7 0 112.3 0 101.2C0 90 0 79 0 67.8C0 56.7 0 45.3 0 34C0 22.7 0 11.3 0 5.7L0 0Z" fill="#243c55"></path><path d="M117 0L106.5 5.7C96 11.3 75 22.7 67 34C59 45.3 64 56.7 64.8 67.8C65.7 79 62.3 90 72 101.2C81.7 112.3 104.3 123.7 114.7 135C125 146.3 123 157.7 120.7 169C118.3 180.3 115.7 191.7 105.3 202.8C95 214 77 225 72.8 236.2C68.7 247.3 78.3 258.7 87.2 270C96 281.3 104 292.7 109.8 304C115.7 315.3 119.3 326.7 110 337.8C100.7 349 78.3 360 71.3 371.2C64.3 382.3 72.7 393.7 78.5 405C84.3 416.3 87.7 427.7 88 439C88.3 450.3 85.7 461.7 86.2 472.8C86.7 484 90.3 495 88.7 506.2C87 517.3 80 528.7 76.5 534.3L73 540L0 540L0 534.3C0 528.7 0 517.3 0 506.2C0 495 0 484 0 472.8C0 461.7 0 450.3 0 439C0 427.7 0 416.3 0 405C0 393.7 0 382.3 0 371.2C0 360 0 349 0 337.8C0 326.7 0 315.3 0 304C0 292.7 0 281.3 0 270C0 258.7 0 247.3 0 236.2C0 225 0 214 0 202.8C0 191.7 0 180.3 0 169C0 157.7 0 146.3 0 135C0 123.7 0 112.3 0 101.2C0 90 0 79 0 67.8C0 56.7 0 45.3 0 34C0 22.7 0 11.3 0 5.7L0 0Z" fill="#182d43"></path><path d="M91 0L91.3 5.7C91.7 11.3 92.3 22.7 89.5 34C86.7 45.3 80.3 56.7 74.5 67.8C68.7 79 63.3 90 61.3 101.2C59.3 112.3 60.7 123.7 58.3 135C56 146.3 50 157.7 50 169C50 180.3 56 191.7 63 202.8C70 214 78 225 80.3 236.2C82.7 247.3 79.3 258.7 74.3 270C69.3 281.3 62.7 292.7 59 304C55.3 315.3 54.7 326.7 60.2 337.8C65.7 349 77.3 360 79 371.2C80.7 382.3 72.3 393.7 69.7 405C67 416.3 70 427.7 74 439C78 450.3 83 461.7 86.2 472.8C89.3 484 90.7 495 87 506.2C83.3 517.3 74.7 528.7 70.3 534.3L66 540L0 540L0 534.3C0 528.7 0 517.3 0 506.2C0 495 0 484 0 472.8C0 461.7 0 450.3 0 439C0 427.7 0 416.3 0 405C0 393.7 0 382.3 0 371.2C0 360 0 349 0 337.8C0 326.7 0 315.3 0 304C0 292.7 0 281.3 0 270C0 258.7 0 247.3 0 236.2C0 225 0 214 0 202.8C0 191.7 0 180.3 0 169C0 157.7 0 146.3 0 135C0 123.7 0 112.3 0 101.2C0 90 0 79 0 67.8C0 56.7 0 45.3 0 34C0 22.7 0 11.3 0 5.7L0 0Z" fill="#0c1f32"></path><path d="M40 0L35.5 5.7C31 11.3 22 22.7 25 34C28 45.3 43 56.7 43 67.8C43 79 28 90 22.7 101.2C17.3 112.3 21.7 123.7 24.3 135C27 146.3 28 157.7 32.8 169C37.7 180.3 46.3 191.7 44 202.8C41.7 214 28.3 225 25.3 236.2C22.3 247.3 29.7 258.7 30.5 270C31.3 281.3 25.7 292.7 26 304C26.3 315.3 32.7 326.7 38.2 337.8C43.7 349 48.3 360 49 371.2C49.7 382.3 46.3 393.7 43.8 405C41.3 416.3 39.7 427.7 34.7 439C29.7 450.3 21.3 461.7 22.2 472.8C23 484 33 495 37 506.2C41 517.3 39 528.7 38 534.3L37 540L0 540L0 534.3C0 528.7 0 517.3 0 506.2C0 495 0 484 0 472.8C0 461.7 0 450.3 0 439C0 427.7 0 416.3 0 405C0 393.7 0 382.3 0 371.2C0 360 0 349 0 337.8C0 326.7 0 315.3 0 304C0 292.7 0 281.3 0 270C0 258.7 0 247.3 0 236.2C0 225 0 214 0 202.8C0 191.7 0 180.3 0 169C0 157.7 0 146.3 0 135C0 123.7 0 112.3 0 101.2C0 90 0 79 0 67.8C0 56.7 0 45.3 0 34C0 22.7 0 11.3 0 5.7L0 0Z" fill="#001122"></path></svg>