<svg id="visual" viewBox="0 0 960 540" width="960" height="540" xmlns="http://www.w3.org/2000/svg" xmlns:xlink="http://www.w3.org/1999/xlink" version="1.1"><path d="M190 0L200 7.5C210 15 230 30 234.5 45C239 60 228 75 214.3 90C200.7 105 184.3 120 178.5 135C172.7 150 177.3 165 185.8 180C194.3 195 206.7 210 215 225C223.3 240 227.7 255 224.2 270C220.7 285 209.3 300 200.2 315C191 330 184 345 184.3 360C184.7 375 192.3 390 189.2 405C186 420 172 435 167.3 450C162.7 465 167.3 480 184.5 495C201.7 510 231.3 525 246.2 532.5L261 540L0 540L0 532.5C0 525 0 510 0 495C0 480 0 465 0 450C0 435 0 420 0 405C0 390 0 375 0 360C0 345 0 330 0 315C0 300 0 285 0 270C0 255 0 240 0 225C0 210 0 195 0 180C0 165 0 150 0 135C0 120 0 105 0 90C0 75 0 60 0 45C0 30 0 15 0 7.5L0 0Z" fill="#4a6b8d"></path><path d="M122 0L134.7 7.5C147.3 15 172.7 30 172 45C171.3 60 144.7 75 134.3 90C124 105 130 120 145.7 135C161.3 150 186.7 165 197.7 180C208.7 195 205.3 210 193 225C180.7 240 159.3 255 148.8 270C138.3 285 138.7 300 149.5 315C160.3 330 181.7 345 193.2 360C204.7 375 206.3 390 197.7 405C189 420 170 435 155.8 450C141.7 465 132.3 480 131.7 495C131 510 139 525 143 532.5L147 540L0 540L0 532.5C0 525 0 510 0 495C0 480 0 465 0 450C0 435 0 420 0 405C0 390 0 375 0 360C0 345 0 330 0 315C0 300 0 285 0 270C0 255 0 240 0 225C0 210 0 195 0 180C0 165 0 150 0 135C0 120 0 105 0 90C0 75 0 60 0 45C0 30 0 15 0 7.5L0 0Z" fill="#3d5b7a"></path><path d="M187 0L181.5 7.5C176 15 165 30 154.8 45C144.7 60 135.3 75 138.8 90C142.3 105 158.7 120 164.8 135C171 150 167 165 158.2 180C149.3 195 135.7 210 124.5 225C113.3 240 104.7 255 101.5 270C98.3 285 100.7 300 110.5 315C120.3 330 137.7 345 146.5 360C155.3 375 155.7 390 152.3 405C149 420 142 435 136.8 450C131.7 465 128.3 480 124.3 495C120.3 510 115.7 525 113.3 532.5L111 540L0 540L0 532.5C0 525 0 510 0 495C0 480 0 465 0 450C0 435 0 420 0 405C0 390 0 375 0 360C0 345 0 330 0 315C0 300 0 285 0 270C0 255 0 240 0 225C0 210 0 195 0 180C0 165 0 150 0 135C0 120 0 105 0 90C0 75 0 60 0 45C0 30 0 15 0 7.5L0 0Z" fill="#304b67"></path><path d="M137 0L129.3 7.5C121.7 15 106.3 30 107.7 45C109 60 127 75 124.8 90C122.7 105 100.3 120 98.2 135C96 150 114 165 117.8 180C121.7 195 111.3 210 107 225C102.7 240 104.3 255 104.3 270C104.3 285 102.7 300 108.8 315C115 330 129 345 130.2 360C131.3 375 119.7 390 108.8 405C98 420 88 435 84.2 450C80.3 465 82.7 480 82.2 495C81.7 510 78.3 525 76.7 532.5L75 540L0 540L0 532.5C0 525 0 510 0 495C0 480 0 465 0 450C0 435 0 420 0 405C0 390 0 375 0 360C0 345 0 330 0 315C0 300 0 285 0 270C0 255 0 240 0 225C0 210 0 195 0 180C0 165 0 150 0 135C0 120 0 105 0 90C0 75 0 60 0 45C0 30 0 15 0 7.5L0 0Z" fill="#243c55"></path><path d="M59 0L66.3 7.5C73.7 15 88.3 30 90 45C91.7 60 80.3 75 75.7 90C71 105 73 120 81.7 135C90.3 150 105.7 165 114.3 180C123 195 125 210 120.7 225C116.3 240 105.7 255 104.3 270C103 285 111 300 108.5 315C106 330 93 345 82.7 360C72.3 375 64.7 390 61.5 405C58.3 420 59.7 435 62.8 450C66 465 71 480 81.7 495C92.3 510 108.7 525 116.8 532.5L125 540L0 540L0 532.5C0 525 0 510 0 495C0 480 0 465 0 450C0 435 0 420 0 405C0 390 0 375 0 360C0 345 0 330 0 315C0 300 0 285 0 270C0 255 0 240 0 225C0 210 0 195 0 180C0 165 0 150 0 135C0 120 0 105 0 90C0 75 0 60 0 45C0 30 0 15 0 7.5L0 0Z" fill="#182d43"></path><path d="M55 0L57.3 7.5C59.7 15 64.3 30 69.8 45C75.3 60 81.7 75 80.7 90C79.7 105 71.3 120 71.3 135C71.3 150 79.7 165 80.7 180C81.7 195 75.3 210 75 225C74.7 240 80.3 255 80.3 270C80.3 285 74.7 300 70.2 315C65.7 330 62.3 345 64 360C65.7 375 72.3 390 78.3 405C84.3 420 89.7 435 87.5 450C85.3 465 75.7 480 73.2 495C70.7 510 75.3 525 77.7 532.5L80 540L0 540L0 532.5C0 525 0 510 0 495C0 480 0 465 0 450C0 435 0 420 0 405C0 390 0 375 0 360C0 345 0 330 0 315C0 300 0 285 0 270C0 255 0 240 0 225C0 210 0 195 0 180C0 165 0 150 0 135C0 120 0 105 0 90C0 75 0 60 0 45C0 30 0 15 0 7.5L0 0Z" fill="#0c1f32"></path><path d="M48 0L44.2 7.5C40.3 15 32.7 30 28.7 45C24.7 60 24.3 75 23.3 90C22.3 105 20.7 120 21.8 135C23 150 27 165 31.7 180C36.3 195 41.7 210 44.3 225C47 240 47 255 43.8 270C40.7 285 34.3 300 35.8 315C37.3 330 46.7 345 47.8 360C49 375 42 390 39 405C36 420 37 435 37.7 450C38.3 465 38.7 480 36.8 495C35 510 31 525 29 532.5L27 540L0 540L0 532.5C0 525 0 510 0 495C0 480 0 465 0 450C0 435 0 420 0 405C0 390 0 375 0 360C0 345 0 330 0 315C0 300 0 285 0 270C0 255 0 240 0 225C0 210 0 195 0 180C0 165 0 150 0 135C0 120 0 105 0 90C0 75 0 60 0 45C0 30 0 15 0 7.5L0 0Z" fill="#001122"></path></svg>