<svg id="visual" viewBox="0 0 960 540" width="960" height="540" xmlns="http://www.w3.org/2000/svg" xmlns:xlink="http://www.w3.org/1999/xlink" version="1.1"><path d="M208 0L202.5 7.5C197 15 186 30 176.7 45C167.3 60 159.7 75 167.3 90C175 105 198 120 212.5 135C227 150 233 165 222.3 180C211.7 195 184.3 210 178.5 225C172.7 240 188.3 255 189 270C189.7 285 175.3 300 177.2 315C179 330 197 345 195.2 360C193.3 375 171.7 390 175.5 405C179.3 420 208.7 435 212.3 450C216 465 194 480 181.7 495C169.3 510 166.7 525 165.3 532.5L164 540L0 540L0 532.5C0 525 0 510 0 495C0 480 0 465 0 450C0 435 0 420 0 405C0 390 0 375 0 360C0 345 0 330 0 315C0 300 0 285 0 270C0 255 0 240 0 225C0 210 0 195 0 180C0 165 0 150 0 135C0 120 0 105 0 90C0 75 0 60 0 45C0 30 0 15 0 7.5L0 0Z" fill="#4a6b8d"></path><path d="M121 0L123.3 7.5C125.7 15 130.3 30 132.2 45C134 60 133 75 142.3 90C151.7 105 171.3 120 185.5 135C199.7 150 208.3 165 198 180C187.7 195 158.3 210 150.5 225C142.7 240 156.3 255 161 270C165.7 285 161.3 300 161.8 315C162.3 330 167.7 345 166.3 360C165 375 157 390 160.3 405C163.7 420 178.3 435 189 450C199.7 465 206.3 480 193.7 495C181 510 149 525 133 532.5L117 540L0 540L0 532.5C0 525 0 510 0 495C0 480 0 465 0 450C0 435 0 420 0 405C0 390 0 375 0 360C0 345 0 330 0 315C0 300 0 285 0 270C0 255 0 240 0 225C0 210 0 195 0 180C0 165 0 150 0 135C0 120 0 105 0 90C0 75 0 60 0 45C0 30 0 15 0 7.5L0 0Z" fill="#3d5b7a"></path><path d="M181 0L168.3 7.5C155.7 15 130.3 30 120.2 45C110 60 115 75 114.5 90C114 105 108 120 110.5 135C113 150 124 165 138.7 180C153.3 195 171.7 210 175.7 225C179.7 240 169.3 255 166.8 270C164.3 285 169.7 300 161 315C152.3 330 129.7 345 132.8 360C136 375 165 390 175.3 405C185.7 420 177.3 435 162.8 450C148.3 465 127.7 480 124.8 495C122 510 137 525 144.5 532.5L152 540L0 540L0 532.5C0 525 0 510 0 495C0 480 0 465 0 450C0 435 0 420 0 405C0 390 0 375 0 360C0 345 0 330 0 315C0 300 0 285 0 270C0 255 0 240 0 225C0 210 0 195 0 180C0 165 0 150 0 135C0 120 0 105 0 90C0 75 0 60 0 45C0 30 0 15 0 7.5L0 0Z" fill="#304b67"></path><path d="M95 0L100.2 7.5C105.3 15 115.7 30 113.7 45C111.7 60 97.3 75 96.8 90C96.3 105 109.7 120 122 135C134.3 150 145.7 165 149.8 180C154 195 151 210 144.3 225C137.7 240 127.3 255 115.8 270C104.3 285 91.7 300 97 315C102.3 330 125.7 345 136.2 360C146.7 375 144.3 390 143.2 405C142 420 142 435 138.2 450C134.3 465 126.7 480 118.7 495C110.7 510 102.3 525 98.2 532.5L94 540L0 540L0 532.5C0 525 0 510 0 495C0 480 0 465 0 450C0 435 0 420 0 405C0 390 0 375 0 360C0 345 0 330 0 315C0 300 0 285 0 270C0 255 0 240 0 225C0 210 0 195 0 180C0 165 0 150 0 135C0 120 0 105 0 90C0 75 0 60 0 45C0 30 0 15 0 7.5L0 0Z" fill="#243c55"></path><path d="M109 0L110.5 7.5C112 15 115 30 107.2 45C99.3 60 80.7 75 82.5 90C84.3 105 106.7 120 115.5 135C124.3 150 119.7 165 116.7 180C113.7 195 112.3 210 108.2 225C104 240 97 255 97.3 270C97.7 285 105.3 300 109.3 315C113.3 330 113.7 345 103.8 360C94 375 74 390 64.8 405C55.7 420 57.3 435 60.2 450C63 465 67 480 66 495C65 510 59 525 56 532.5L53 540L0 540L0 532.5C0 525 0 510 0 495C0 480 0 465 0 450C0 435 0 420 0 405C0 390 0 375 0 360C0 345 0 330 0 315C0 300 0 285 0 270C0 255 0 240 0 225C0 210 0 195 0 180C0 165 0 150 0 135C0 120 0 105 0 90C0 75 0 60 0 45C0 30 0 15 0 7.5L0 0Z" fill="#182d43"></path><path d="M43 0L43.2 7.5C43.3 15 43.7 30 42.7 45C41.7 60 39.3 75 45 90C50.7 105 64.3 120 69 135C73.7 150 69.3 165 63.2 180C57 195 49 210 50.8 225C52.7 240 64.3 255 63 270C61.7 285 47.3 300 42.7 315C38 330 43 345 45.7 360C48.3 375 48.7 390 55.5 405C62.3 420 75.7 435 78.8 450C82 465 75 480 72.7 495C70.3 510 72.7 525 73.8 532.5L75 540L0 540L0 532.5C0 525 0 510 0 495C0 480 0 465 0 450C0 435 0 420 0 405C0 390 0 375 0 360C0 345 0 330 0 315C0 300 0 285 0 270C0 255 0 240 0 225C0 210 0 195 0 180C0 165 0 150 0 135C0 120 0 105 0 90C0 75 0 60 0 45C0 30 0 15 0 7.5L0 0Z" fill="#0c1f32"></path><path d="M44 0L39.8 7.5C35.7 15 27.3 30 22 45C16.7 60 14.3 75 20 90C25.7 105 39.3 120 41.8 135C44.3 150 35.7 165 36.5 180C37.3 195 47.7 210 50.8 225C54 240 50 255 43.5 270C37 285 28 300 25.3 315C22.7 330 26.3 345 28 360C29.7 375 29.3 390 27.2 405C25 420 21 435 21 450C21 465 25 480 31.8 495C38.7 510 48.3 525 53.2 532.5L58 540L0 540L0 532.5C0 525 0 510 0 495C0 480 0 465 0 450C0 435 0 420 0 405C0 390 0 375 0 360C0 345 0 330 0 315C0 300 0 285 0 270C0 255 0 240 0 225C0 210 0 195 0 180C0 165 0 150 0 135C0 120 0 105 0 90C0 75 0 60 0 45C0 30 0 15 0 7.5L0 0Z" fill="#001122"></path></svg>