<svg id="visual" viewBox="0 0 960 540" width="960" height="540" xmlns="http://www.w3.org/2000/svg" xmlns:xlink="http://www.w3.org/1999/xlink" version="1.1"><path d="M177 0L180.5 7.5C184 15 191 30 198 45C205 60 212 75 214.2 90C216.3 105 213.7 120 202 135C190.3 150 169.7 165 169.8 180C170 195 191 210 188.8 225C186.7 240 161.3 255 166.5 270C171.7 285 207.3 300 210.8 315C214.3 330 185.7 345 178.8 360C172 375 187 390 188.8 405C190.7 420 179.3 435 185.2 450C191 465 214 480 210.3 495C206.7 510 176.3 525 161.2 532.5L146 540L0 540L0 532.5C0 525 0 510 0 495C0 480 0 465 0 450C0 435 0 420 0 405C0 390 0 375 0 360C0 345 0 330 0 315C0 300 0 285 0 270C0 255 0 240 0 225C0 210 0 195 0 180C0 165 0 150 0 135C0 120 0 105 0 90C0 75 0 60 0 45C0 30 0 15 0 7.5L0 0Z" fill="#4a6b8d"></path><path d="M178 0L173.7 7.5C169.3 15 160.7 30 164.3 45C168 60 184 75 188 90C192 105 184 120 185.3 135C186.7 150 197.3 165 190.7 180C184 195 160 210 152.5 225C145 240 154 255 159.8 270C165.7 285 168.3 300 177.8 315C187.3 330 203.7 345 207 360C210.3 375 200.7 390 192.3 405C184 420 177 435 183.2 450C189.3 465 208.7 480 209.8 495C211 510 194 525 185.5 532.5L177 540L0 540L0 532.5C0 525 0 510 0 495C0 480 0 465 0 450C0 435 0 420 0 405C0 390 0 375 0 360C0 345 0 330 0 315C0 300 0 285 0 270C0 255 0 240 0 225C0 210 0 195 0 180C0 165 0 150 0 135C0 120 0 105 0 90C0 75 0 60 0 45C0 30 0 15 0 7.5L0 0Z" fill="#3d5b7a"></path><path d="M195 0L188.5 7.5C182 15 169 30 158.7 45C148.3 60 140.7 75 138.7 90C136.7 105 140.3 120 140.2 135C140 150 136 165 141 180C146 195 160 210 169.5 225C179 240 184 255 170.8 270C157.7 285 126.3 300 125.2 315C124 330 153 345 159 360C165 375 148 390 140.2 405C132.3 420 133.7 435 139.8 450C146 465 157 480 159.5 495C162 510 156 525 153 532.5L150 540L0 540L0 532.5C0 525 0 510 0 495C0 480 0 465 0 450C0 435 0 420 0 405C0 390 0 375 0 360C0 345 0 330 0 315C0 300 0 285 0 270C0 255 0 240 0 225C0 210 0 195 0 180C0 165 0 150 0 135C0 120 0 105 0 90C0 75 0 60 0 45C0 30 0 15 0 7.5L0 0Z" fill="#304b67"></path><path d="M132 0L129 7.5C126 15 120 30 121.8 45C123.7 60 133.3 75 140.5 90C147.7 105 152.3 120 154.2 135C156 150 155 165 154.7 180C154.3 195 154.7 210 149.8 225C145 240 135 255 123.3 270C111.7 285 98.3 300 97 315C95.7 330 106.3 345 111.3 360C116.3 375 115.7 390 108.8 405C102 420 89 435 83.8 450C78.7 465 81.3 480 83.5 495C85.7 510 87.3 525 88.2 532.5L89 540L0 540L0 532.5C0 525 0 510 0 495C0 480 0 465 0 450C0 435 0 420 0 405C0 390 0 375 0 360C0 345 0 330 0 315C0 300 0 285 0 270C0 255 0 240 0 225C0 210 0 195 0 180C0 165 0 150 0 135C0 120 0 105 0 90C0 75 0 60 0 45C0 30 0 15 0 7.5L0 0Z" fill="#243c55"></path><path d="M86 0L91.8 7.5C97.7 15 109.3 30 108.7 45C108 60 95 75 87.5 90C80 105 78 120 82 135C86 150 96 165 94.8 180C93.7 195 81.3 210 77 225C72.7 240 76.3 255 74.2 270C72 285 64 300 71.2 315C78.3 330 100.7 345 109.5 360C118.3 375 113.7 390 114.5 405C115.3 420 121.7 435 116.8 450C112 465 96 480 84.8 495C73.7 510 67.3 525 64.2 532.5L61 540L0 540L0 532.5C0 525 0 510 0 495C0 480 0 465 0 450C0 435 0 420 0 405C0 390 0 375 0 360C0 345 0 330 0 315C0 300 0 285 0 270C0 255 0 240 0 225C0 210 0 195 0 180C0 165 0 150 0 135C0 120 0 105 0 90C0 75 0 60 0 45C0 30 0 15 0 7.5L0 0Z" fill="#182d43"></path><path d="M40 0L48.2 7.5C56.3 15 72.7 30 74.2 45C75.7 60 62.3 75 63 90C63.7 105 78.3 120 76.3 135C74.3 150 55.7 165 45.8 180C36 195 35 210 37.8 225C40.7 240 47.3 255 55.5 270C63.7 285 73.3 300 73.2 315C73 330 63 345 61.8 360C60.7 375 68.3 390 68.8 405C69.3 420 62.7 435 59 450C55.3 465 54.7 480 52.8 495C51 510 48 525 46.5 532.5L45 540L0 540L0 532.5C0 525 0 510 0 495C0 480 0 465 0 450C0 435 0 420 0 405C0 390 0 375 0 360C0 345 0 330 0 315C0 300 0 285 0 270C0 255 0 240 0 225C0 210 0 195 0 180C0 165 0 150 0 135C0 120 0 105 0 90C0 75 0 60 0 45C0 30 0 15 0 7.5L0 0Z" fill="#0c1f32"></path><path d="M26 0L31 7.5C36 15 46 30 50.7 45C55.3 60 54.7 75 55.3 90C56 105 58 120 54.3 135C50.7 150 41.3 165 36.5 180C31.7 195 31.3 210 28.3 225C25.3 240 19.7 255 23.8 270C28 285 42 300 42.2 315C42.3 330 28.7 345 26.5 360C24.3 375 33.7 390 35.7 405C37.7 420 32.3 435 29.3 450C26.3 465 25.7 480 25.2 495C24.7 510 24.3 525 24.2 532.5L24 540L0 540L0 532.5C0 525 0 510 0 495C0 480 0 465 0 450C0 435 0 420 0 405C0 390 0 375 0 360C0 345 0 330 0 315C0 300 0 285 0 270C0 255 0 240 0 225C0 210 0 195 0 180C0 165 0 150 0 135C0 120 0 105 0 90C0 75 0 60 0 45C0 30 0 15 0 7.5L0 0Z" fill="#001122"></path></svg>